<?xml version="1.0" encoding="UTF-8" standalone="no"?><!-- Generator: Gravit.io --><svg xmlns="http://www.w3.org/2000/svg" xmlns:xlink="http://www.w3.org/1999/xlink" style="isolation:isolate" viewBox="0 0 1024 768" width="1024pt" height="768pt"><defs><clipPath id="_clipPath_3ssPXp713IWEXCPrv0GmojQ4h0uRCpJL"><rect width="1024" height="768"/></clipPath></defs><g clip-path="url(#_clipPath_3ssPXp713IWEXCPrv0GmojQ4h0uRCpJL)"><g><rect x="268.386" y="293.766" width="315.479" height="161.472" transform="matrix(1,0,0,1,0,0)" fill="rgb(234,80,73)"/><path d=" M 46.789 322.995 L 46.789 426.089 L 129.947 426.089 L 129.947 384.867 L 102.466 384.867 L 102.466 398.608 L 74.27 398.608 L 74.27 388.362 L 95.556 388.362 L 95.556 360.881 L 74.27 360.881 L 74.27 350.555 L 102.466 350.555 L 102.466 364.217 L 129.947 364.217 L 129.947 322.995 L 46.789 322.995 Z " fill="rgb(29,29,27)"/><path d=" M 139.955 426.089 L 139.955 322.995 L 167.516 322.995 L 167.516 398.608 L 181.336 398.608 L 181.336 387.012 L 208.817 387.012 L 208.817 426.089 L 139.955 426.089 Z " fill="rgb(29,29,27)"/><rect x="218.904" y="322.836" width="27.481" height="103.253" transform="matrix(1,0,0,1,0,0)" fill="rgb(29,29,27)"/><path d=" M 297.694 322.995 L 325.176 322.995 L 354.245 375.892 L 354.245 322.995 L 381.727 322.995 L 381.727 426.089 L 354.245 426.089 L 325.176 376.21 L 325.176 426.089 L 297.694 426.089 L 297.694 322.995 Z " fill="rgb(255,255,255)"/><path d=" M 473.543 426.089 L 390.384 426.089 L 390.384 322.995 L 473.543 322.995 L 473.543 364.217 L 446.061 364.217 L 446.061 350.555 L 417.945 350.555 L 417.945 360.881 L 439.151 360.881 L 439.151 388.362 L 417.945 388.362 L 417.945 398.608 L 446.061 398.608 L 446.061 384.867 L 473.543 384.867 L 473.543 426.089 Z " fill="rgb(255,255,255)"/><path d=" M 554.557 350.397 L 531.444 350.397 L 531.444 426.089 L 503.963 426.089 L 503.963 350.397 L 482.2 350.397 L 482.2 322.836 L 554.557 322.836 L 554.557 350.397 Z " fill="rgb(255,255,255)"/></g><g><path d=" M 322.742 212.587 L 322.742 212.587 C 323.841 210.115 325.489 207.918 329.334 207.918 C 334.552 207.918 338.947 213.136 338.947 218.904 C 338.947 224.946 334.827 230.439 329.334 230.439 C 326.038 230.439 324.665 229.341 323.292 226.869 L 323.292 226.869 L 323.292 234.834 C 323.292 236.207 324.116 236.756 327.411 236.756 L 327.411 238.404 L 315.327 238.404 L 315.327 236.756 C 318.073 236.756 318.897 236.207 318.897 234.834 L 318.897 212.312 C 318.897 210.939 318.073 210.39 315.327 210.39 L 315.327 208.742 L 322.742 208.467 L 322.742 212.587 Z  M 323.017 219.453 L 323.017 220.552 C 323.017 227.418 326.587 228.791 328.235 228.791 C 332.63 228.791 334.278 226.045 334.278 219.178 C 334.278 213.411 332.63 209.291 328.785 209.291 C 325.214 209.566 323.017 213.685 323.017 219.453 Z " fill="rgb(0,0,0)"/><path d=" M 353.503 229.89 L 341.419 229.89 L 341.419 228.242 C 344.165 228.242 344.989 227.693 344.989 226.319 L 344.989 211.763 C 344.989 210.39 344.165 209.84 341.693 209.84 L 341.693 208.192 L 348.834 207.918 L 348.834 214.509 L 348.834 214.509 C 349.658 210.939 351.306 207.918 355.151 207.918 C 357.623 207.918 358.722 209.566 358.722 210.939 C 358.722 212.038 357.623 213.411 356.25 213.411 C 354.877 213.411 354.053 212.587 354.053 211.214 C 354.053 210.39 354.327 209.84 354.877 209.566 C 354.602 209.566 354.602 209.566 354.327 209.566 C 351.306 209.566 349.109 215.059 349.109 223.848 C 349.109 227.693 349.383 228.517 353.503 228.517 L 353.503 229.89 Z " fill="rgb(0,0,0)"/><path d=" M 382.067 219.178 C 382.067 225.77 377.123 230.439 371.081 230.439 C 365.039 230.439 360.095 225.77 360.095 219.178 C 360.095 212.587 365.039 207.918 371.081 207.918 C 377.123 207.918 382.067 212.587 382.067 219.178 Z  M 377.398 219.178 C 377.398 211.763 374.926 209.566 371.356 209.566 C 367.785 209.566 365.313 211.763 365.313 219.178 C 365.313 226.594 367.785 228.791 371.356 228.791 C 374.926 228.791 377.398 226.594 377.398 219.178 Z " fill="rgb(0,0,0)"/><path d=" M 391.13 212.587 L 391.13 212.587 C 392.229 210.115 393.877 207.918 397.722 207.918 C 402.94 207.918 407.335 213.136 407.335 218.904 C 407.335 224.946 403.215 230.439 397.722 230.439 C 394.426 230.439 393.053 229.341 391.68 226.869 L 391.68 226.869 L 391.68 234.834 C 391.68 236.207 392.504 236.756 395.8 236.756 L 395.8 238.404 L 383.715 238.404 L 383.715 236.756 C 386.461 236.756 387.285 236.207 387.285 234.834 L 387.285 212.312 C 387.285 210.939 386.461 210.39 383.715 210.39 L 383.715 208.742 L 391.13 208.467 L 391.13 212.587 Z  M 391.405 219.453 L 391.405 220.552 C 391.405 227.418 394.976 228.791 396.624 228.791 C 401.018 228.791 402.666 226.045 402.666 219.178 C 402.666 213.411 401.018 209.291 397.173 209.291 C 393.602 209.566 391.405 213.685 391.405 219.453 Z " fill="rgb(0,0,0)"/><path d=" M 426.835 230.165 L 426.835 225.77 L 426.835 225.77 C 425.187 228.517 422.99 230.439 419.969 230.439 C 415.849 230.439 413.103 227.693 413.103 222.2 L 413.103 212.038 C 413.103 210.664 412.279 210.115 409.807 210.115 L 409.807 208.467 L 417.222 208.467 L 417.222 224.122 C 417.222 226.594 418.321 228.517 420.518 228.517 C 424.363 228.517 426.011 224.946 426.286 221.925 L 426.286 211.763 C 426.286 210.39 425.462 209.84 422.715 209.84 L 422.715 208.192 L 430.406 208.192 L 430.406 226.045 C 430.406 227.418 431.23 227.967 433.701 227.967 L 433.701 229.615 L 426.835 230.165 Z " fill="rgb(0,0,0)"/><path d=" M 435.075 229.89 L 435.075 228.242 C 437.821 228.242 438.645 227.693 438.645 226.319 L 438.645 202.15 C 438.645 200.777 437.821 200.228 435.075 200.228 L 435.075 198.58 L 442.765 198.305 L 442.765 226.045 C 442.765 227.418 443.589 227.967 446.335 227.967 L 446.335 229.615 L 435.075 229.615 L 435.075 229.89 Z " fill="rgb(0,0,0)"/><path d=" M 448.258 230.165 L 448.258 222.2 L 449.631 222.2 C 450.455 226.045 453.476 228.791 457.596 228.791 C 459.793 228.791 462.54 227.418 462.54 224.946 C 462.54 218.629 448.533 222.2 448.533 214.235 C 448.533 210.115 452.103 207.918 456.223 207.918 C 460.068 207.918 461.441 209.566 462.265 209.566 C 463.089 209.566 463.089 208.742 463.364 208.467 L 465.012 208.467 L 465.012 215.059 L 463.364 215.059 C 461.991 211.763 460.343 209.566 456.497 209.566 C 454.575 209.566 452.378 210.39 452.378 212.587 C 452.378 218.08 466.385 214.509 466.385 223.024 C 466.385 227.967 462.265 230.439 457.871 230.439 C 453.751 230.439 452.378 228.791 451.004 228.791 C 450.181 228.791 449.906 229.615 449.906 230.165 L 448.258 230.165 L 448.258 230.165 Z " fill="rgb(0,0,0)"/><path d=" M 491.104 219.178 C 491.104 225.77 486.16 230.439 480.117 230.439 C 474.075 230.439 469.131 225.77 469.131 219.178 C 469.131 212.587 474.075 207.918 480.117 207.918 C 486.16 207.918 491.104 212.587 491.104 219.178 Z  M 486.16 219.178 C 486.16 211.763 483.688 209.566 480.117 209.566 C 476.547 209.566 474.075 211.763 474.075 219.178 C 474.075 226.594 476.547 228.791 480.117 228.791 C 483.688 228.791 486.16 226.594 486.16 219.178 Z " fill="rgb(0,0,0)"/><path d=" M 505.111 229.89 L 493.026 229.89 L 493.026 228.242 C 495.773 228.242 496.597 227.693 496.597 226.319 L 496.597 211.763 C 496.597 210.39 495.773 209.84 493.301 209.84 L 493.301 208.192 L 500.442 207.918 L 500.442 214.509 L 500.442 214.509 C 501.266 210.939 502.914 207.918 506.759 207.918 C 509.231 207.918 510.329 209.566 510.329 210.939 C 510.329 212.038 509.231 213.411 507.857 213.411 C 506.484 213.411 505.66 212.587 505.66 211.214 C 505.66 210.39 505.935 209.84 506.484 209.566 C 506.209 209.566 506.209 209.566 505.935 209.566 C 502.914 209.566 500.716 215.059 500.716 223.848 C 500.716 227.693 500.991 228.517 505.111 228.517 L 505.111 229.89 L 505.111 229.89 Z " fill="rgb(0,0,0)"/><path d=" M 516.646 219.178 C 516.646 225.495 519.393 229.066 523.238 229.066 C 526.259 229.066 528.456 227.143 530.104 224.946 L 531.203 225.77 C 529.28 228.791 526.534 230.714 521.864 230.714 C 516.097 230.714 511.977 225.495 511.977 219.453 C 511.977 213.411 516.371 208.192 521.864 208.192 C 527.083 208.192 531.477 212.038 531.477 219.178 L 516.646 219.178 Z  M 526.808 217.531 C 526.808 214.235 526.259 209.566 521.59 209.566 C 517.195 209.566 516.646 214.235 516.646 217.531 L 526.808 217.531 Z " fill="rgb(0,0,0)"/><path d=" M 552.076 201.326 L 552.076 208.467 L 558.393 208.467 L 558.393 210.115 L 552.076 210.115 L 552.076 226.594 C 552.076 228.517 553.175 229.066 554.548 229.066 C 556.196 229.066 557.844 227.693 557.844 224.122 L 557.844 223.298 L 559.217 223.298 L 559.217 224.122 C 559.217 228.242 558.118 230.714 553.449 230.714 C 550.154 230.714 547.682 229.615 547.682 225.221 L 547.682 210.39 L 544.386 210.39 L 544.386 208.742 C 548.506 208.467 549.055 207.094 550.428 201.601 L 552.076 201.601 L 552.076 201.326 Z " fill="rgb(0,0,0)"/><path d=" M 566.083 219.178 C 566.083 225.495 568.83 229.066 572.675 229.066 C 575.696 229.066 577.893 227.143 579.541 224.946 L 580.64 225.77 C 578.717 228.791 575.971 230.714 571.302 230.714 C 565.534 230.714 561.414 225.495 561.414 219.453 C 561.414 213.411 565.809 208.192 571.302 208.192 C 576.52 208.192 580.915 212.038 580.915 219.178 L 566.083 219.178 Z  M 576.245 217.531 C 576.245 214.235 575.696 209.566 571.027 209.566 C 566.633 209.566 566.083 214.235 566.083 217.531 L 576.245 217.531 Z " fill="rgb(0,0,0)"/><path d=" M 603.711 225.221 C 601.788 228.517 599.042 230.439 594.922 230.439 C 588.605 230.439 583.936 225.77 583.936 219.178 C 583.936 212.587 589.703 207.918 595.746 207.918 C 599.591 207.918 603.436 209.84 603.436 213.136 C 603.436 214.784 602.337 216.157 600.689 216.157 C 599.042 216.157 597.943 215.059 597.943 213.685 C 597.943 212.312 598.767 211.488 600.14 211.488 C 600.415 211.488 600.689 211.488 600.964 211.488 C 600.415 210.115 598.492 209.566 596.02 209.566 C 591.626 209.566 588.879 212.587 588.879 218.629 C 588.879 224.397 591.077 228.791 595.746 228.791 C 599.042 228.791 600.964 226.869 602.612 224.671 L 603.711 225.221 Z " fill="rgb(0,0,0)"/><path d=" M 612.774 208.192 L 612.774 212.587 L 612.774 212.587 C 614.422 209.84 616.619 207.918 619.64 207.918 C 622.936 207.918 626.507 209.566 626.507 216.157 L 626.507 226.319 C 626.507 227.693 627.331 228.242 629.802 228.242 L 629.802 229.89 L 622.387 229.89 L 622.387 214.784 C 622.387 210.939 620.464 209.84 618.816 209.84 C 615.521 209.84 613.323 213.96 613.323 217.531 L 613.323 226.594 C 613.323 227.967 614.147 228.517 616.894 228.517 L 616.894 230.165 L 605.908 230.165 L 605.908 228.242 C 608.38 228.242 609.204 227.693 609.204 226.319 L 609.204 211.763 C 609.204 210.39 608.38 209.84 605.908 209.84 L 605.908 208.192 L 612.774 208.192 Z " fill="rgb(0,0,0)"/><path d=" M 653.972 219.178 C 653.972 225.77 649.028 230.439 642.986 230.439 C 636.943 230.439 632 225.77 632 219.178 C 632 212.587 636.943 207.918 642.986 207.918 C 649.303 207.918 653.972 212.587 653.972 219.178 Z  M 649.303 219.178 C 649.303 211.763 646.831 209.566 643.26 209.566 C 639.69 209.566 637.218 211.763 637.218 219.178 C 637.218 226.594 639.69 228.791 643.26 228.791 C 646.831 228.791 649.303 226.594 649.303 219.178 Z " fill="rgb(0,0,0)"/><path d=" M 656.444 229.89 L 656.444 228.242 C 659.19 228.242 660.014 227.693 660.014 226.319 L 660.014 202.15 C 660.014 200.777 659.19 200.228 656.444 200.228 L 656.444 198.58 L 664.134 198.305 L 664.134 226.045 C 664.134 227.418 664.958 227.967 667.704 227.967 L 667.704 229.615 L 656.444 229.615 L 656.444 229.89 Z " fill="rgb(0,0,0)"/><path d=" M 692.148 219.178 C 692.148 225.77 687.205 230.439 681.162 230.439 C 675.12 230.439 670.176 225.77 670.176 219.178 C 670.176 212.587 675.12 207.918 681.162 207.918 C 687.205 207.918 692.148 212.587 692.148 219.178 Z  M 687.205 219.178 C 687.205 211.763 684.733 209.566 681.162 209.566 C 677.592 209.566 675.12 211.763 675.12 219.178 C 675.12 226.594 677.592 228.791 681.162 228.791 C 684.733 228.791 687.205 226.594 687.205 219.178 Z " fill="rgb(0,0,0)"/><path d=" M 700.662 228.242 C 698.74 228.242 696.268 227.418 696.268 225.221 C 696.268 223.298 699.839 221.925 701.486 221.65 L 701.486 221.65 C 698.465 220.552 695.993 218.355 695.993 215.059 C 695.993 211.763 699.289 208.192 704.233 208.192 C 706.705 208.192 708.078 208.467 709.177 209.291 C 709.177 207.094 710.55 205.721 712.747 205.721 C 714.12 205.721 715.494 206.27 715.494 208.192 C 715.494 209.291 714.67 210.115 713.571 210.115 C 712.472 210.115 711.649 209.566 711.649 208.742 C 711.649 208.192 711.649 207.918 711.649 207.643 C 711.649 207.643 711.374 207.643 711.374 207.643 C 710.825 207.643 710.275 208.192 710.275 209.291 L 710.275 209.84 C 711.099 210.39 711.923 211.214 712.472 212.038 C 713.022 212.861 713.296 213.685 713.296 215.059 C 713.296 218.08 710.825 221.65 706.156 222.2 C 700.937 222.474 699.289 223.024 699.289 224.397 C 699.289 227.418 715.219 223.573 715.219 231.812 C 715.219 237.305 708.902 239.503 704.233 239.503 C 698.74 239.503 694.345 237.031 694.345 233.735 C 694.62 230.439 698.191 228.517 700.662 228.242 L 700.662 228.242 Z  M 704.508 237.58 C 709.451 237.58 712.198 235.383 712.198 232.911 C 712.198 230.714 709.451 229.341 703.958 229.341 C 699.839 229.341 697.916 231.263 697.916 232.911 C 697.916 235.383 700.937 237.58 704.508 237.58 Z  M 700.662 215.059 C 700.662 218.904 702.31 220.552 704.782 220.552 C 707.254 220.552 708.902 218.904 708.902 215.059 C 708.902 211.214 707.254 209.566 704.782 209.566 C 702.31 209.566 700.662 211.214 700.662 215.059 Z " fill="rgb(0,0,0)"/><path d=" M 717.142 229.89 L 717.142 228.242 C 719.888 228.242 720.712 227.693 720.712 226.319 L 720.712 211.763 C 720.712 210.39 719.888 209.84 717.142 209.84 L 717.142 208.192 L 724.832 207.918 L 724.832 226.045 C 724.832 227.418 725.656 227.967 728.402 227.967 L 728.402 229.615 L 717.142 229.615 L 717.142 229.89 Z  M 724.832 201.326 C 724.832 202.699 723.733 203.798 722.36 203.798 C 720.987 203.798 719.888 202.699 719.888 201.326 C 719.888 199.953 720.987 198.854 722.36 198.854 C 723.459 198.854 724.832 199.953 724.832 201.326 Z " fill="rgb(0,0,0)"/><path d=" M 750.649 225.221 C 748.726 228.517 745.98 230.439 741.86 230.439 C 735.543 230.439 730.874 225.77 730.874 219.178 C 730.874 212.587 736.642 207.918 742.684 207.918 C 746.529 207.918 750.374 209.84 750.374 213.136 C 750.374 214.784 749.276 216.157 747.628 216.157 C 745.98 216.157 744.881 215.059 744.881 213.685 C 744.881 212.312 745.705 211.488 747.079 211.488 C 747.353 211.488 747.628 211.488 747.902 211.488 C 747.353 210.115 745.431 209.566 742.959 209.566 C 738.564 209.566 735.818 212.587 735.818 218.629 C 735.818 224.397 738.015 228.791 742.684 228.791 C 745.98 228.791 747.902 226.869 749.55 224.671 L 750.649 225.221 Z " fill="rgb(0,0,0)"/><path d=" M 775.642 219.178 C 775.642 225.77 770.699 230.439 764.656 230.439 C 758.614 230.439 753.67 225.77 753.67 219.178 C 753.67 212.587 758.614 207.918 764.656 207.918 C 770.699 207.918 775.642 212.587 775.642 219.178 Z  M 770.699 219.178 C 770.699 211.763 768.227 209.566 764.656 209.566 C 761.086 209.566 758.614 211.763 758.614 219.178 C 758.614 226.594 761.086 228.791 764.656 228.791 C 768.227 228.791 770.699 226.594 770.699 219.178 Z " fill="rgb(0,0,0)"/></g><g><path d=" M 349.933 35.711 C 368.609 35.711 374.926 42.028 374.926 61.529 L 374.926 83.775 C 374.926 101.353 368.06 108.219 350.207 108.219 L 339.771 108.219 L 339.771 177.706 L 318.623 177.706 L 318.623 35.711 L 349.933 35.711 Z  M 339.496 88.17 L 345.264 88.17 C 351.581 88.17 353.778 85.698 353.778 78.282 L 353.778 76.36 L 353.778 67.022 L 353.778 65.099 C 353.503 57.958 351.581 55.761 345.264 55.761 L 339.496 55.761 L 339.496 88.17 Z " fill="rgb(0,0,0)"/><path d=" M 413.652 35.711 L 419.694 35.711 C 422.715 35.986 426.011 36.535 428.483 37.634 C 431.23 38.733 433.427 40.93 434.8 43.402 C 437.272 47.247 437.547 49.169 437.547 57.134 L 437.547 85.698 C 437.547 97.233 435.075 101.353 426.286 104.1 C 433.976 105.198 437.547 109.867 437.547 119.205 L 437.547 119.48 L 437.547 177.706 L 416.398 177.706 L 416.398 117.832 C 416.398 111.241 414.476 108.494 409.257 108.494 L 402.117 108.494 L 402.117 177.706 L 380.968 177.706 L 380.968 35.711 L 413.652 35.711 Z  M 402.94 90.092 L 408.983 90.092 C 414.201 90.092 416.673 88.17 416.673 84.05 L 416.948 70.043 L 416.948 67.846 C 416.948 57.684 415.849 55.212 409.807 55.212 L 402.666 55.212 L 402.666 90.092 L 402.94 90.092 Z " fill="rgb(0,0,0)"/><path d=" M 645.183 76.085 L 645.183 62.078 C 645.183 55.486 643.26 52.74 638.866 52.74 C 634.472 52.74 632.274 56.036 632.274 62.353 L 632.274 79.656 C 632.274 88.17 633.373 90.092 640.239 94.487 L 652.599 102.452 C 663.31 109.593 667.155 113.987 667.155 125.248 L 667.155 151.34 C 667.155 169.192 656.718 179.903 639.415 179.903 C 629.253 179.903 621.014 176.058 616.07 169.741 C 612.225 164.523 611.126 159.579 611.126 148.318 L 611.126 136.508 L 632.274 136.508 L 632.274 149.692 C 632.274 156.558 634.197 159.03 638.866 159.304 C 643.81 159.579 645.458 156.558 645.458 149.142 L 645.458 132.938 C 645.458 124.424 645.458 123.6 636.943 117.557 L 624.859 109.043 C 610.852 99.43 610.852 96.684 610.852 84.599 L 610.852 57.409 C 610.852 42.303 621.563 32.965 638.591 32.965 C 648.753 32.965 656.993 36.535 661.387 42.578 C 664.683 46.972 665.782 52.19 665.782 60.979 L 665.782 75.81 L 645.183 75.81 L 645.183 76.085 Z " fill="rgb(0,0,0)"/><path d=" M 666.331 35.711 L 687.754 35.711 L 702.036 78.832 L 715.219 35.711 L 736.642 35.711 L 713.022 111.79 L 713.022 177.706 L 691.874 177.706 L 691.874 111.515 L 666.331 35.711 Z " fill="rgb(0,0,0)"/><path d=" M 774.544 177.706 L 753.396 177.706 L 753.396 56.585 L 739.388 56.585 L 739.388 35.711 L 788.826 35.711 L 788.826 56.585 L 774.544 56.585 L 774.544 177.706 Z " fill="rgb(0,0,0)"/></g><g><path d=" M 525.435 25 C 480.392 25 443.864 61.529 443.864 106.571 C 443.864 151.614 480.392 188.143 525.435 188.143 C 570.478 188.143 607.006 151.614 607.006 106.571 C 607.006 61.529 570.478 25 525.435 25 Z  M 525.435 175.509 C 487.258 175.509 456.497 144.748 456.497 106.571 C 456.497 68.395 487.258 37.634 525.435 37.634 C 563.611 37.634 594.372 68.395 594.372 106.571 C 594.372 144.748 563.611 175.509 525.435 175.509 Z " fill="rgb(234,81,74)"/><path d=" M 522.688 49.444 C 522.414 48.895 521.59 47.521 520.491 46.423 C 518.569 44.5 516.646 43.951 514.724 44.226 C 510.604 44.5 501.815 48.071 500.716 48.62 C 467.758 64.824 463.638 95.311 463.638 100.254 C 463.638 101.628 464.188 102.177 465.012 102.452 C 465.836 102.726 466.934 102.726 467.484 100.804 C 472.702 82.127 486.709 58.233 520.491 54.113 C 521.315 54.113 522.414 53.564 522.688 52.465 C 523.512 51.641 523.512 50.543 522.688 49.444 Z " fill="rgb(234,81,74)"/><path d=" M 479.019 140.354 C 478.744 140.903 477.92 142.551 477.646 143.649 C 476.822 146.121 477.371 148.318 478.47 149.692 C 480.941 152.987 488.082 158.755 489.181 159.579 C 519.667 180.178 548.231 168.093 552.351 165.896 C 553.449 165.347 553.999 164.523 553.724 163.699 C 553.449 162.875 552.9 161.776 550.978 162.326 C 532.301 166.995 504.287 166.995 483.963 139.53 C 483.413 138.706 482.589 138.431 481.491 138.431 C 480.667 138.706 479.843 139.255 479.019 140.354 Z " fill="rgb(234,81,74)"/><path d=" M 577.619 131.839 C 578.168 131.839 580.091 131.839 581.189 131.565 C 583.661 131.015 585.309 129.367 586.133 127.72 C 587.781 123.874 589.154 114.811 589.429 113.438 C 591.901 76.634 567.457 57.958 563.337 55.486 C 562.238 54.662 561.414 54.937 560.865 55.486 C 560.316 56.036 559.766 57.134 561.14 58.507 C 574.598 72.24 588.605 96.409 574.872 127.72 C 574.598 128.544 574.598 129.642 575.147 130.466 C 575.147 131.29 576.245 131.839 577.619 131.839 Z " fill="rgb(234,81,74)"/><path d=" M 557.569 63.726 C 557.569 63.726 556.196 62.078 554.548 63.177 C 553.724 63.726 553.175 64.824 554.548 66.198 C 554.548 66.198 564.161 77.458 564.71 95.036 C 564.71 95.036 564.71 96.684 564.161 96.959 C 563.611 97.233 563.062 96.684 562.788 96.135 C 562.788 96.135 557.844 80.754 550.428 73.888 C 550.428 73.888 549.055 72.515 547.956 73.613 C 547.132 74.163 547.407 75.536 547.956 76.36 C 547.956 76.36 556.196 87.346 554.823 98.607 C 554.823 98.881 541.914 102.452 536.421 103.825 C 535.597 100.254 533.125 97.508 529.829 96.135 L 530.379 67.846 C 530.379 67.846 530.928 56.86 519.393 58.507 C 519.393 58.507 482.864 66.747 473.801 100.804 C 473.801 100.804 473.251 103.001 474.624 103.55 C 475.448 103.825 476.822 103.825 477.371 102.177 C 477.371 102.177 482.315 88.17 497.146 78.832 C 497.146 78.832 498.519 78.008 499.068 78.282 C 499.618 78.557 499.618 79.381 499.068 79.93 C 499.068 79.93 488.357 92.015 485.885 101.628 C 485.885 101.628 485.336 103.55 486.984 104.1 C 488.082 104.374 488.906 103.825 489.456 102.726 C 489.456 102.726 494.949 90.092 505.385 85.698 C 505.66 85.698 513.625 93.663 518.019 98.057 C 515.548 100.254 513.9 103.276 513.9 106.846 C 513.9 108.494 514.174 110.142 514.998 111.515 L 491.378 124.698 C 491.378 124.698 481.491 129.917 488.906 138.98 C 488.906 138.98 514.174 166.445 548.506 157.382 C 548.506 157.382 550.703 156.833 550.428 155.185 C 550.428 154.361 549.604 153.262 547.956 153.537 C 547.956 153.537 533.4 156.283 517.745 148.044 C 517.745 148.044 516.371 147.22 516.371 146.671 C 516.371 146.121 517.195 145.847 517.745 145.847 C 517.745 145.847 533.4 149.142 543.287 146.396 C 543.287 146.396 545.21 145.847 544.935 144.473 C 544.661 143.375 543.562 143.1 542.463 143.1 C 542.463 143.1 528.731 144.748 519.667 137.882 C 519.393 137.607 523.238 123.6 524.611 118.381 C 525.16 118.381 525.435 118.381 525.984 118.381 C 529.28 118.381 532.027 117.008 534.224 115.086 L 558.393 129.642 C 558.393 129.642 567.731 135.41 571.851 124.698 C 571.302 124.424 582.562 88.719 557.569 63.726 Z  M 525.435 110.966 C 522.963 110.966 521.041 109.043 521.041 106.571 C 521.041 104.1 522.963 102.177 525.435 102.177 C 527.907 102.177 529.829 104.1 529.829 106.571 C 529.829 109.043 527.907 110.966 525.435 110.966 Z " fill="rgb(234,81,74)"/></g><g><path d=" M 464.651 640.052 L 475.659 640.052 C 478.373 640.052 480.182 638.167 480.182 635.529 C 480.182 633.116 478.298 631.231 475.659 631.231 L 467.818 631.231 C 458.469 631.231 450.704 623.692 450.704 614.117 C 450.704 604.994 458.469 597.003 467.818 597.003 L 480.182 597.003 L 480.182 609.593 L 469.175 609.593 C 466.762 609.593 464.651 611.478 464.651 613.891 C 464.651 616.605 466.536 618.414 469.175 618.414 L 476.94 618.414 C 486.289 618.414 494.055 625.652 494.055 635.529 C 494.055 644.35 486.289 652.643 476.94 652.643 L 464.651 652.643 L 464.651 640.052 Z " fill="rgb(29,29,27)"/><path d=" M 545.398 624.747 L 545.398 596.852 L 560.401 596.852 L 560.401 624.747 C 560.401 633.342 566.809 640.052 575.404 640.052 C 584.225 640.052 590.408 633.342 590.408 624.747 L 590.408 596.852 L 605.411 596.852 L 605.411 624.747 C 605.411 642.163 590.408 653.925 575.178 653.925 C 557.687 653.925 545.398 642.163 545.398 624.747 Z " fill="rgb(29,29,27)"/><path d=" M 660.976 624.747 C 660.976 615.926 654.793 609.442 645.972 609.442 C 637.378 609.442 630.969 615.851 630.969 624.747 C 630.969 633.342 637.378 640.052 645.972 640.052 C 654.793 640.052 660.976 633.342 660.976 624.747 Z  M 615.966 624.747 C 615.966 608.689 629.386 595.57 645.143 595.57 C 650.798 595.57 656.151 596.927 660.976 600.395 L 660.976 581.924 L 675.979 581.924 L 675.979 624.823 C 675.979 640.882 662.031 654 645.972 654 C 628.557 653.925 615.966 642.163 615.966 624.747 Z " fill="rgb(29,29,27)"/><rect x="690.53" y="596.852" width="15.003" height="55.716" transform="matrix(1,0,0,1,0,0)" fill="rgb(29,29,27)"/><path d=" M 719.858 624.747 L 719.858 596.852 L 734.861 596.852 L 734.861 624.747 C 734.861 633.342 741.27 640.052 749.865 640.052 C 758.686 640.052 764.868 633.342 764.868 624.747 L 764.868 596.852 L 779.871 596.852 L 779.871 624.747 C 779.871 642.163 764.868 653.925 749.563 653.925 C 732.223 653.925 719.858 642.163 719.858 624.747 Z " fill="rgb(29,29,27)"/><path d=" M 791.859 624.747 C 791.859 607.331 806.862 595.57 822.167 595.57 C 831.817 595.57 839.583 599.038 844.936 604.919 C 850.59 599.038 858.883 595.57 867.177 595.57 C 884.593 595.57 896.882 607.331 896.882 624.747 L 896.882 652.643 L 881.878 652.643 L 881.878 624.747 C 881.878 615.926 875.47 609.442 866.875 609.442 C 858.054 609.442 851.872 615.851 851.872 624.747 L 851.872 652.643 L 836.869 652.643 L 836.869 624.747 C 836.869 615.926 830.686 609.442 821.865 609.442 C 813.27 609.442 806.862 615.851 806.862 624.747 L 806.862 652.643 L 791.859 652.643 L 791.859 624.747 L 791.859 624.747 Z " fill="rgb(29,29,27)"/><path d=" M 518.935 581.849 L 503.931 581.849 L 503.931 596.852 L 503.931 652.643 L 518.935 652.643 L 518.935 611.855 L 533.938 611.855 L 533.938 596.852 L 531.978 596.852 L 518.935 596.852 L 518.935 581.849 L 518.935 581.849 Z " fill="rgb(29,29,27)"/><rect x="661.051" y="376.477" width="133.22" height="133.22" transform="matrix(1,0,0,1,0,0)" fill="rgb(234,80,73)"/><path d=" M 698.748 567.976 L 705.533 581.849 L 1001 437.998 L 994.215 424.126 L 698.748 567.976 Z " fill="rgb(29,29,27)"/></g></g></svg>