<svg id="Layer_1" data-name="Layer 1" xmlns="http://www.w3.org/2000/svg" viewBox="0 0 172.49 77.91"><defs><style>.cls-1{fill:#ea514a;}</style></defs><title>logo_prosyt_2018</title><path d="M236.51 269.34h0a2.42 2.42.0 012.34-1.72c1.94.0 3.5 1.94 3.5 4s-1.49 4.18-3.48 4.18a2.15 2.15.0 01-2.22-1.34h0v2.9c0 .53.3.7 1.49.7v.56h-4.37v-.56c1 0 1.33-.17 1.33-.7v-8.19c0-.53-.3-.7-1.26-.7v-.56l2.68-.1zm.13 2.42v.45c0 2.52 1.34 3 1.89 3 1.56.0 2.15-1 2.15-3.48.0-2.09-.6-3.58-2-3.58C237.4 268.18 236.64 269.68 236.64 271.76z" transform="translate(-233.75 -201.05)"/><path d="M247.67 275.61H243.3V275c1 0 1.26-.17 1.26-.7v-5.27c0-.53-.3-.7-1.19-.7v-.56l2.63-.1V270h0c.35-1.33.89-2.35 2.27-2.35a1.2 1.2.0 011.31 1.14.88.88.0 01-.88.88.73.73.0 01-.81-.78.74.74.0 01.35-.65.74.74.0 00-.22.0c-1.11.0-1.94 2-1.94 5.19.0 1.38.1 1.67 1.56 1.67z" transform="translate(-233.75 -201.05)"/><path d="M258.15 271.71a4 4 0 11-4-4.09A4 4 0 01258.15 271.71zm-1.79.0c0-2.72-.89-3.53-2.24-3.53s-2.24.81-2.24 3.53.89 3.53 2.24 3.53S256.36 274.43 256.36 271.71z" transform="translate(-233.75 -201.05)"/><path d="M261.38 269.34h0a2.42 2.42.0 012.34-1.72c1.94.0 3.5 1.94 3.5 4s-1.49 4.18-3.48 4.18a2.15 2.15.0 01-2.22-1.34h0v2.9c0 .53.3.7 1.49.7v.56h-4.37v-.56c1 0 1.33-.17 1.33-.7v-8.19c0-.53-.3-.7-1.26-.7v-.56l2.68-.1zm.13 2.42v.45c0 2.52 1.34 3 1.89 3 1.56.0 2.15-1 2.15-3.48.0-2.09-.6-3.58-2-3.58C262.27 268.18 261.51 269.68 261.51 271.76z" transform="translate(-233.75 -201.05)"/><path d="M274.35 275.71v-1.56h0a2.85 2.85.0 01-2.54 1.66c-1.49.0-2.47-1-2.47-3v-3.74c0-.53-.3-.7-1.18-.7v-.56h2.73v5.73c0 .93.36 1.59 1.24 1.59 1.36.0 2-1.26 2.1-2.35v-3.71c0-.53-.3-.7-1.29-.7v-.56h2.85v6.53c0 .53.3.7 1.16.7v.56z" transform="translate(-233.75 -201.05)"/><path d="M277.42 275.61V275c1 0 1.26-.17 1.26-.7v-8.78c0-.53-.3-.7-1.26-.7v-.56l2.82-.1v10.14c0 .53.3.7 1.26.7v.56z" transform="translate(-233.75 -201.05)"/><path d="M282.21 275.71v-2.85h.46a2.94 2.94.0 002.9 2.39c.78.0 1.77-.48 1.77-1.38.0-2.3-5.09-1-5.09-3.94.0-1.46 1.31-2.3 2.82-2.3a5.09 5.09.0 012.15.56c.27.0.35-.27.38-.43h.56v2.42h-.56c-.5-1.24-1.09-2-2.52-2-.73.0-1.51.3-1.51 1.13.0 2 5.09.75 5.09 3.81.0 1.77-1.46 2.68-3.08 2.68s-2-.63-2.47-.63c-.3.0-.38.33-.45.53z" transform="translate(-233.75 -201.05)"/><path d="M297.75 271.71a4 4 0 11-4-4.09A4 4 0 01297.75 271.71zm-1.79.0c0-2.72-.89-3.53-2.24-3.53s-2.24.81-2.24 3.53.89 3.53 2.24 3.53S296 274.43 296 271.71z" transform="translate(-233.75 -201.05)"/><path d="M302.94 275.61h-4.37V275c1 0 1.26-.17 1.26-.7v-5.27c0-.53-.3-.7-1.19-.7v-.56l2.63-.1V270h0c.35-1.33.89-2.35 2.27-2.35a1.2 1.2.0 011.31 1.14.88.88.0 01-.88.88.73.73.0 01-.81-.78.74.74.0 01.35-.65.74.74.0 00-.22.0c-1.11.0-1.94 2-1.94 5.19.0 1.38.1 1.67 1.56 1.67z" transform="translate(-233.75 -201.05)"/><path d="M307.13 271.66c0 2.29 1 3.58 2.4 3.58a3.1 3.1.0 002.49-1.52l.4.27a3.73 3.73.0 01-3.43 1.82 4.12 4.12.0 010-8.19c1.94.0 3.51 1.36 3.51 4zm3.68-.56c0-1.19-.23-2.92-1.86-2.92s-1.82 1.72-1.82 2.92z" transform="translate(-233.75 -201.05)"/><path d="M320 265.24v2.58h2.3v.56H320v6c0 .7.43.86.91.86.65.0 1.21-.46 1.21-1.79v-.35h.46v.28c0 1.49-.45 2.42-2.09 2.42-1.16.0-2.05-.38-2.05-2v-5.4h-1.21v-.56c1.54-.13 1.74-.56 2.17-2.58z" transform="translate(-233.75 -201.05)"/><path d="M325.08 271.66c0 2.29 1 3.58 2.4 3.58a3.1 3.1.0 002.49-1.52l.4.27a3.73 3.73.0 01-3.43 1.82 4.12 4.12.0 010-8.19c1.94.0 3.51 1.36 3.51 4zm3.68-.56c0-1.19-.23-2.92-1.86-2.92s-1.82 1.72-1.82 2.92z" transform="translate(-233.75 -201.05)"/><path d="M338.85 273.92a3.54 3.54.0 01-3.25 1.89 4 4 0 01-4-4.09 4.25 4.25.0 014.32-4.09c1.36.0 2.75.66 2.75 1.86a1 1 0 01-1 1.06.92.92.0 01-1-.89.75.75.0 01.85-.8 2.5 2.5.0 01.35.0c-.25-.48-.91-.7-1.82-.7-1.61.0-2.6 1.14-2.6 3.35s.76 3.71 2.54 3.71a2.94 2.94.0 002.52-1.52z" transform="translate(-233.75 -201.05)"/><path d="M342.1 267.72v1.56h0a2.85 2.85.0 012.54-1.66c1.18.0 2.47.61 2.47 3v3.69c0 .53.3.7 1.18.7v.56h-2.73v-5.53c0-1.44-.71-1.79-1.33-1.79-1.23.0-2 1.54-2 2.8v3.26c0 .53.3.7 1.29.7v.56h-4V275c.88.0 1.18-.17 1.18-.7v-5.27c0-.53-.3-.7-1.18-.7v-.56z" transform="translate(-233.75 -201.05)"/><path d="M357.14 271.71a4 4 0 11-4-4.09A4 4 0 01357.14 271.71zm-1.79.0c0-2.72-.89-3.53-2.24-3.53s-2.24.81-2.24 3.53.89 3.53 2.24 3.53S355.35 274.43 355.35 271.71z" transform="translate(-233.75 -201.05)"/><path d="M358 275.61V275c1 0 1.26-.17 1.26-.7v-8.78c0-.53-.3-.7-1.26-.7v-.56l2.82-.1v10.14c0 .53.3.7 1.26.7v.56z" transform="translate(-233.75 -201.05)"/><path d="M371 271.71a4 4 0 11-4-4.09A4 4 0 01371 271.71zm-1.79.0c0-2.72-.89-3.53-2.24-3.53s-2.24.81-2.24 3.53.89 3.53 2.24 3.53S369.17 274.43 369.17 271.71z" transform="translate(-233.75 -201.05)"/><path d="M374.13 275c-.71.0-1.62-.27-1.62-1.14s1.28-1.23 1.87-1.34v0a2.59 2.59.0 01-2-2.37 2.82 2.82.0 013-2.52 3.53 3.53.0 011.84.36 1.15 1.15.0 011.26-1.26c.5.0 1 .17 1 .93a.65.65.0 01-.66.66c-.38.0-.66-.22-.66-.55a2 2 0 010-.4.42.42.0 00-.13.0c-.17.0-.43.22-.43.63v.22a2.8 2.8.0 01.78.83 2 2 0 01.28 1.08 2.73 2.73.0 01-2.58 2.55c-1.89.13-2.45.31-2.45.76.0 1.13 5.8-.33 5.8 2.72.0 2-2.32 2.82-4 2.82-2 0-3.58-.93-3.58-2.12.0-1 1.26-1.71 2.22-1.77zm1.36 3.36c1.82.0 2.85-.81 2.85-1.71s-1-1.34-3-1.34c-1.54.0-2.2.66-2.2 1.31C373.1 277.58 374.19 278.39 375.49 278.39zm-1.39-8.2c0 1.36.6 2 1.49 2s1.49-.65 1.49-2-.6-2-1.49-2S374.09 268.83 374.09 270.19z" transform="translate(-233.75 -201.05)"/><path d="M380.09 275.61V275c1 0 1.26-.17 1.26-.7v-5.27c0-.53-.3-.7-1.26-.7v-.56l2.82-.1v6.63c0 .53.3.7 1.26.7v.56zm2.78-10.37a.93.93.0 11-.93-.93A.93.93.0 01382.88 265.24z" transform="translate(-233.75 -201.05)"/><path d="M392.27 273.92a3.54 3.54.0 01-3.25 1.89 4 4 0 01-4-4.09 4.25 4.25.0 014.32-4.09c1.36.0 2.75.66 2.75 1.86a1 1 0 01-1 1.06.92.92.0 01-1-.89.75.75.0 01.84-.8 2.51 2.51.0 01.35.0c-.25-.48-.91-.7-1.82-.7-1.61.0-2.6 1.14-2.6 3.35s.76 3.71 2.54 3.71a2.94 2.94.0 002.52-1.52z" transform="translate(-233.75 -201.05)"/><path d="M401.35 271.71a4 4 0 11-4-4.09A4 4 0 01401.35 271.71zm-1.79.0c0-2.72-.89-3.53-2.24-3.53s-2.24.81-2.24 3.53.89 3.53 2.24 3.53S399.56 274.43 399.56 271.71z" transform="translate(-233.75 -201.05)"/><path d="M246.41 204.93c6.81.0 9.08 2.27 9.08 9.37v8.05c0 6.44-2.49 8.93-9 8.93h-3.81v25.34H235v-51.7zm-3.81 19h2.12c2.34.0 3.08-.88 3.15-3.59v-4.91c-.07-2.64-.81-3.44-3.15-3.44H242.6z" transform="translate(-233.75 -201.05)"/><path d="M269.62 204.93h2.2a9.42 9.42.0 013.22.73 5.76 5.76.0 012.34 2.05c.88 1.39 1 2.12 1 5v10.4c0 4.25-.88 5.71-4.1 6.74 2.78.37 4.1 2.12 4.1 5.49v21.31h-7.69V234.81c0-2.42-.73-3.37-2.56-3.37H265.6v25.19h-7.69v-51.7zm-4 19.77h2.2c1.9.0 2.78-.66 2.78-2.2l.15-5.05v-.81c0-3.73-.44-4.61-2.56-4.61h-2.56z" transform="translate(-233.75 -201.05)"/><path d="M353.95 219.58v-5.05c0-2.42-.73-3.44-2.27-3.44s-2.42 1.24-2.42 3.51v6.3c0 3.15.44 3.81 2.93 5.42l4.54 2.93c3.88 2.64 5.27 4.17 5.27 8.35v9.52c0 6.52-3.81 10.4-10.11 10.4-3.66.0-6.74-1.39-8.49-3.73-1.39-1.9-1.76-3.66-1.76-7.76v-4.32h7.69v4.83c0 2.49.73 3.44 2.42 3.51s2.42-1 2.42-3.66v-5.86c0-3.08.0-3.37-3.15-5.57l-4.39-3.08c-5.05-3.51-5.05-4.47-5.05-8.86V212.84c0-5.49 3.88-8.93 10.1-8.93 3.66.0 6.74 1.32 8.35 3.51 1.17 1.61 1.61 3.51 1.61 6.74v5.42z" transform="translate(-233.75 -201.05)"/><path d="M361.61 204.93h7.76l5.2 15.67 4.76-15.67h7.76l-8.57 27.68v24h-7.69V232.46z" transform="translate(-233.75 -201.05)"/><path d="M401 256.63h-7.69V212.55h-5.13v-7.62h18v7.62H401z" transform="translate(-233.75 -201.05)"/><path class="cls-1" d="M310.31 201A29.68 29.68.0 10340 230.72 29.68 29.68.0 00310.31 201zm0 54.79a25.11 25.11.0 1125.11-25.11 25.11 25.11.0 01-25.11 25.15z" transform="translate(-233.75 -201.05)"/><path class="cls-1" d="M309.33 209.87a5.9 5.9.0 00-.76-1.05 2.49 2.49.0 00-2.09-.83 23.8 23.8.0 00-5.05 1.59 23.35 23.35.0 00-13.51 18.77c0 .48.16.74.47.81a.73.73.0 00.93-.61c1.9-6.76 7-15.54 19.34-17a1 1 0 00.8-.56A1.23 1.23.0 00309.33 209.87z" transform="translate(-233.75 -201.05)"/><path class="cls-1" d="M293.43 243a5.9 5.9.0 00-.53 1.18 2.49 2.49.0 00.33 2.22 23.8 23.8.0 003.9 3.58 23.35 23.35.0 0023 2.32c.43-.23.56-.5.47-.82a.73.73.0 00-1-.5c-6.8 1.73-17 1.7-24.35-8.27a1 1 0 00-.89-.41A1.23 1.23.0 00293.43 243z" transform="translate(-233.75 -201.05)"/><path class="cls-1" d="M329.31 239.88a5.9 5.9.0 001.29-.13 2.49 2.49.0 001.76-1.4 23.8 23.8.0 001.15-5.17 23.35 23.35.0 00-9.5-21.08c-.41-.26-.72-.23-.94.0a.73.73.0 00.06 1.11c4.9 5 10 13.85 5 25.23a1 1 0 00.09 1A1.23 1.23.0 00329.31 239.88z" transform="translate(-233.75 -201.05)"/><path class="cls-1" d="M322 215.07s-.54-.6-1.06-.21a.71.71.0 000 1.12 18.12 18.12.0 013.74 10.53s0 .6-.22.69a.37.37.0 01-.47-.28s-1.82-5.57-4.46-8.14c0 0-.49-.49-.93-.12a.71.71.0 000 1s3 4 2.51 8.14c0 .11-4.66 1.35-6.72 1.89a4.19 4.19.0 00-2.4-2.81l.19-10.27a3.21 3.21.0 00-4-3.39s-13.28 3-16.65 15.4c0 0-.25.76.35 1 .3.13.76.12 1-.52a18.12 18.12.0 017.24-8.51s.49-.34.71-.16a.37.37.0 010 .55s-3.92 4.36-4.82 7.93c0 0-.18.66.35.86.35.13.7-.14.85-.52.0.0 2-4.64 5.79-6.24.1.0 3 2.85 4.62 4.49a4.17 4.17.0 00-1.1 4.9l-8.64 4.78a3.21 3.21.0 00-.94 5.16s9.22 10 21.66 6.72c0 0 .79-.17.71-.81.0-.33-.28-.72-.95-.6a18.12 18.12.0 01-11-2s-.54-.26-.49-.53a.37.37.0 01.48-.27s5.73 1.21 9.28.2c0 0 .66-.18.57-.74-.06-.37-.47-.53-.88-.48.0.0-5 .63-8.3-1.9-.1-.07 1.29-5.2 1.8-7.07a4.22 4.22.0 00.48.0 4.17 4.17.0 003-1.24l8.79 5.29a3.21 3.21.0 004.94-1.77S331.06 224.21 322 215.07zm-11.68 17.28a1.63 1.63.0 111.63-1.63A1.63 1.63.0 01310.31 232.35z" transform="translate(-233.75 -201.05)"/></svg>